<mxfile host="app.diagrams.net" modified="2024-04-29T14:26:42.776Z" agent="Mozilla/5.0 (Windows NT 10.0; Win64; x64) AppleWebKit/537.36 (KHTML, like Gecko) Chrome/124.0.0.0 Safari/537.36 Edg/124.0.0.0" version="24.3.1" etag="O9x4F7x6u7kejm_LG9Rv" type="github">
  <diagram name="第 1 页" id="Rd6O2Q7nFE7LTflckjIT">
    <mxGraphModel>
      <root>
        <mxCell id="0" />
        <mxCell id="1" parent="0" />
      </root>
    </mxGraphModel>
  </diagram>
</mxfile>
